<svg id="Layer_1" data-name="Layer 1" xmlns="http://www.w3.org/2000/svg" viewBox="0 0 413.64 890.15"><defs><style>.cls-1{fill:none;stroke:#000;stroke-miterlimit:10;}</style></defs><g id="Skyview_Ranch" data-name="Skyview Ranch"><path class="cls-1" d="M1042.5,136.5" transform="translate(-661.96 -122.5)"/></g><path id="Stonegate_Landing" data-name="Stonegate Landing" class="cls-1" d="M857.39,178.5l34.91-31,1.09-20c.09-1.66,1.78-3,3.85-3H966v54Z" transform="translate(-661.96 -122.5)"/><path id="Redstone" class="cls-1" d="M970.53,123H1016l0,24.53H970.53Z" transform="translate(-661.96 -122.5)"/><path id="Cityscape" class="cls-1" d="M971.35,180.24h45.06l0,36.76H971.35Z" transform="translate(-661.96 -122.5)"/><path id="Saddle_Ridge" data-name="Saddle Ridge" class="cls-1" d="M971.83,220.07H1064l0,35.43H971.83Z" transform="translate(-661.96 -122.5)"/><path id="Taradale" class="cls-1" d="M1021,258.75h43.73l0,37.25H1021Z" transform="translate(-661.96 -122.5)"/><path id="Coral_Springs" data-name="Coral Springs" class="cls-1" d="M1042,299.49h22.26V336H1042Z" transform="translate(-661.96 -122.5)"/><path id="Castleridge" class="cls-1" d="M984,300h14v36.32H984Z" transform="translate(-661.96 -122.5)"/><path id="Westwinds" class="cls-1" d="M948.88,299.81H980l0,36.51H948.88Z" transform="translate(-661.96 -122.5)"/><path id="Montgomery_Park" data-name="Montgomery Park" class="cls-1" d="M1042.35,338.43h22.26V414h-22.27Z" transform="translate(-661.96 -122.5)"/><path id="Temple" class="cls-1" d="M997,339.43h41.6l0,36.51H997Z" transform="translate(-661.96 -122.5)"/><path id="Pineridge" class="cls-1" d="M997,379.43h42l0,34.57H997Z" transform="translate(-661.96 -122.5)"/><path id="Whitehorn" class="cls-1" d="M949,339.43h44.66l0,36.51H949Z" transform="translate(-661.96 -122.5)"/><path id="Rundle" class="cls-1" d="M949,379.43h44.66l0,34.57H949Z" transform="translate(-661.96 -122.5)"/><path id="Saddle_Ridge_Industrial" data-name="Saddle Ridge Industrial" class="cls-1" d="M949,220h18v76H949Z" transform="translate(-661.96 -122.5)"/><path id="Martindale" class="cls-1" d="M971.79,259.34H1016l0,36.51H971.79Z" transform="translate(-661.96 -122.5)"/><path id="Falconridge" class="cls-1" d="M1001,300h38l0,36.85h-38Z" transform="translate(-661.96 -122.5)"/><path id="Abbydale" class="cls-1" d="M1042,417.9h21.9v36.52H1042Z" transform="translate(-661.96 -122.5)"/><path id="Marlborough_Park" data-name="Marlborough Park" class="cls-1" d="M997,418.07h42l0,36.51H997Z" transform="translate(-661.96 -122.5)"/><path id="Marlborough" class="cls-1" d="M949,418.07h45l0,36.51H949Z" transform="translate(-661.96 -122.5)"/><path id="Applewood_Park" data-name="Applewood Park" class="cls-1" d="M1042,458h22.8v33H1042Z" transform="translate(-661.96 -122.5)"/><path id="Stoney_3" data-name="Stoney 3" class="cls-1" d="M948.7,182.18H966V216H948.7Z" transform="translate(-661.96 -122.5)"/><path id="Skyview_Ranch-2" data-name="Skyview Ranch" class="cls-1" d="M971.2,150.41H1016l0,25.59H971.2Z" transform="translate(-661.96 -122.5)"/><path id="Calgary_International_Airport" data-name="Calgary International Airport" class="cls-1" d="M945,182l0,154H857l.5-114.08c0-35.71-.5-39.81-.5-39.81Z" transform="translate(-661.96 -122.5)"/><path id="Horizon" class="cls-1" d="M908,339.1h37.27l0,36.52H908Z" transform="translate(-661.96 -122.5)"/><path id="Sunridge" class="cls-1" d="M908,379.1h37.27l0,36.52H908Z" transform="translate(-661.96 -122.5)"/><path id="North_Airways" data-name="North Airways" class="cls-1" d="M857.17,349.66l48.2.63-.32,26-48.22-.63Z" transform="translate(-661.96 -122.5)"/><path id="Pegasus" class="cls-1" d="M857.06,338.69l48.36.63-.08,8L857,346.71Z" transform="translate(-661.96 -122.5)"/><path id="South_Airways" data-name="South Airways" class="cls-1" d="M857.18,379.45l47.82.62-.21,17.27L857,396.71Z" transform="translate(-661.96 -122.5)"/><path id="Vista_Heights" data-name="Vista Heights" class="cls-1" d="M857.34,399.49l47.73.62-.17,14.23-47.74-.63Z" transform="translate(-661.96 -122.5)"/><path id="Franklin" class="cls-1" d="M927.37,417.86l17.72.23-.72,56-17.73-.23Z" transform="translate(-661.96 -122.5)"/><path id="Meridian" class="cls-1" d="M908.16,417.89l14.93.2-.72,56-14.94-.2Z" transform="translate(-661.96 -122.5)"/><path id="Mayland" class="cls-1" d="M881.13,444.84l24,.32-.36,28.18-24-.31Z" transform="translate(-661.96 -122.5)"/><path id="Mayland_Heights" data-name="Mayland Heights" class="cls-1" d="M860.41,417.73l44.65.58-.29,24-44.67-.59Z" transform="translate(-661.96 -122.5)"/><path id="McCall" class="cls-1" d="M838.26,337.91l15,.2L852.78,374l-15-.19Z" transform="translate(-661.96 -122.5)"/><path id="Skyline_East" data-name="Skyline East" class="cls-1" d="M823.11,309.59l30,.39-.33,26-30.06-.39Z" transform="translate(-661.96 -122.5)"/><path id="Deerfoor_Business_Centre" data-name="Deerfoor Business Centre" class="cls-1" d="M816,277.66l37,.15-.1,29.3-37-.16Z" transform="translate(-661.96 -122.5)"/><path id="Stoney_2" data-name="Stoney 2" class="cls-1" d="M826.72,275.16l-.24-71.08,26.4-.12.24,71.11Z" transform="translate(-661.96 -122.5)"/><path id="Penbrook_Meadows" data-name="Penbrook Meadows" class="cls-1" d="M997.21,457.73l41.43.54-.41,33-41.45-.54Z" transform="translate(-661.96 -122.5)"/><path id="Forest_Heights" data-name="Forest Heights" class="cls-1" d="M949.18,457.71l44.87.59-.15,13L949,470.71Z" transform="translate(-661.96 -122.5)"/><path id="Radisson_Heights" data-name="Radisson Heights" class="cls-1" d="M949.15,474.63l44.46.58-.45,36.07-44.48-.58Z" transform="translate(-661.96 -122.5)"/><path id="Forest_Lawn_Industrial" data-name="Forest Lawn Industrial" class="cls-1" d="M997.16,494.9l16.43.21-.3,23.12L996.86,518Z" transform="translate(-661.96 -122.5)"/><path id="Erin_Woods" data-name="Erin Woods" class="cls-1" d="M949.18,514.28l44,.57-.49,39.43-44-.57Z" transform="translate(-661.96 -122.5)"/><path id="Albert_Park" data-name="Albert Park" class="cls-1" d="M901.17,476.78l44.2.58-.19,15.94L901,492.72Z" transform="translate(-661.96 -122.5)"/><path id="Southview" class="cls-1" d="M917.16,495.82l28.31.37-.19,15L917,510.82Z" transform="translate(-661.96 -122.5)"/><path id="Dover" class="cls-1" d="M917.26,514.17l28,.36-.5,39.68-28-.37Z" transform="translate(-661.96 -122.5)"/><path id="North_Airways-2" data-name="North Airways" class="cls-1" d="M949.1,557.15l43.68.57-.17,14.56-43.7-.57Z" transform="translate(-661.96 -122.5)"/><path id="Golden_Triangle" data-name="Golden Triangle" class="cls-1" d="M917.19,557.81l27.82.37-.17,14L917,571.82Z" transform="translate(-661.96 -122.5)"/><path id="Starfield" class="cls-1" d="M997.17,575.71l41.64.55-.4,32-41.66-.54Z" transform="translate(-661.96 -122.5)"/><path id="Great_Plains" data-name="Great Plains" class="cls-1" d="M997.67,611.76l41.59.54-.46,37.26L997.19,649Z" transform="translate(-661.96 -122.5)"/><path id="Foothills" class="cls-1" d="M943.36,575.31l48.2.63-.94,73.32-48.22-.63Z" transform="translate(-661.96 -122.5)"/><path id="Ogden_Shops" data-name="Ogden Shops" class="cls-1" d="M917.38,575.68l22.08.23-.72,73.21-22.1-.22Z" transform="translate(-661.96 -122.5)"/><path id="Ogden" class="cls-1" d="M865.65,596.67l48.2.63-.65,51L865,647.69Z" transform="translate(-661.96 -122.5)"/><path id="Valleyfield" class="cls-1" d="M872.25,567.09l41.25.54-.32,26-41.27-.54Z" transform="translate(-661.96 -122.5)"/><path id="South_Foothills" data-name="South Foothills" class="cls-1" d="M943.12,652.8l48.19.63-.31,26-48.22-.63Z" transform="translate(-661.96 -122.5)"/><path id="Shepard_Industrial" data-name="Shepard Industrial" class="cls-1" d="M909.16,652.5l29.19.37-1,78.29-29.21-.37Z" transform="translate(-661.96 -122.5)"/><path id="Riverbend" class="cls-1" d="M854.22,651.49l50.3.65-.5,40.07-50.33-.66Z" transform="translate(-661.96 -122.5)"/><path id="Douglasdale" class="cls-1" d="M861.17,695.69l42.56.56-.32,26-42.58-.55Z" transform="translate(-661.96 -122.5)"/><path id="East_Shepard_Industrial" data-name="East Shepard Industrial" class="cls-1" d="M943.06,683.32l96.73,1.27-.76,62.16-96.79-1.27Z" transform="translate(-661.96 -122.5)"/><path id="Mckenzie_Towne" data-name="Mckenzie Towne" class="cls-1" d="M961.35,750.25l32.59.43-.72,56.55-32.61-.43Z" transform="translate(-661.96 -122.5)"/><path id="New_Brighton" data-name="New Brighton" class="cls-1" d="M998.35,750.25l33.59.44L1031,824l-33.61-.44Z" transform="translate(-661.96 -122.5)"/><path id="Copperfield" class="cls-1" d="M1035.35,750.25l32.59.43L1067,824l-32.61-.43Z" transform="translate(-661.96 -122.5)"/><path id="Diamond_Grove" data-name="Diamond Grove" class="cls-1" d="M853.41,732.83l27.09.48L880.2,751l-27.11-.48Z" transform="translate(-661.96 -122.5)"/><path id="Douglasdale-2" data-name="Douglasdale" class="cls-1" d="M907.42,758l32.59.43-.46,36.87-32.61-.42Z" transform="translate(-661.96 -122.5)"/><path id="Mckenzie_Lake" data-name="Mckenzie Lake" class="cls-1" d="M907.42,800l32.59.43-.51,40.8-32.62-.43Z" transform="translate(-661.96 -122.5)"/><path id="Cranston" class="cls-1" d="M907.42,848l32.59.43-.94,73.32-32.61-.43Z" transform="translate(-661.96 -122.5)"/><path id="Auburn_Bay" data-name="Auburn Bay" class="cls-1" d="M975.42,875l32.59.43-.62,48.81-32.61-.42Z" transform="translate(-661.96 -122.5)"/><path id="Mahogany" class="cls-1" d="M1042.51,869.43l32.59.43-.46,36.48-32.61-.43Z" transform="translate(-661.96 -122.5)"/><path id="Seton" class="cls-1" d="M1009.93,911.71l32.6.43-.5,39.07-32.61-.43Z" transform="translate(-661.96 -122.5)"/><path id="Legacy" class="cls-1" d="M873.2,963.79l60.08.79-.6,47.56-60.1-.78Z" transform="translate(-661.96 -122.5)"/><path id="Walden" class="cls-1" d="M836.93,933.79l32.59.43-.33,26.56-32.61-.42Z" transform="translate(-661.96 -122.5)"/><path id="Chaparral" class="cls-1" d="M818,898.93,900,900l-.34,29.43-82-1.07Z" transform="translate(-661.96 -122.5)"/><path id="Sundance" class="cls-1" d="M797,858.14l66,.86-.39,32.22-66-.86Z" transform="translate(-661.96 -122.5)"/><path id="Midnapore" class="cls-1" d="M774.93,823.37,823,824l-.33,27-48.07-.63Z" transform="translate(-661.96 -122.5)"/><path id="Deer_Run" data-name="Deer Run" class="cls-1" d="M871.42,806.78l32.6.43-.33,26-32.61-.43Z" transform="translate(-661.96 -122.5)"/><path id="Deer_Ridge" data-name="Deer Ridge" class="cls-1" d="M855.26,778.78l32.6.43-.3,24.49-32.62-.43Z" transform="translate(-661.96 -122.5)"/><path id="Queensland" class="cls-1" d="M847.23,753.73l32.59.42-.26,21.55-32.62-.43Z" transform="translate(-661.96 -122.5)"/><path id="Silverado" class="cls-1" d="M723,897.29l88.94-.13L812,932.1l-89,.14Z" transform="translate(-661.96 -122.5)"/><path id="Somerset" class="cls-1" d="M717.8,865.79l60.32.79-.3,25-60.35-.78Z" transform="translate(-661.96 -122.5)"/><path id="Bridlewood" class="cls-1" d="M662.8,865.75l50.3.66-.3,25-50.33-.65Z" transform="translate(-661.96 -122.5)"/><path id="Shawnessy" class="cls-1" d="M713.15,836.58l51.17.67-.27,23.15-51.2-.67Z" transform="translate(-661.96 -122.5)"/></svg>